<svg width="158" height="34" viewBox="0 0 158 34" fill="none" xmlns="http://www.w3.org/2000/svg">
<path d="M9.912 26.836C7.54133 26.836 5.572 25.9773 4.004 24.26C2.45467 22.524 1.68 20.004 1.68 16.7C1.68 13.3773 2.47333 10.764 4.06 8.86C5.64667 6.956 8.02667 6.004 11.2 6.004C13.5893 6.004 15.5587 6.86267 17.108 8.58C18.6573 10.2787 19.432 12.7893 19.432 16.112C19.432 19.416 18.6387 22.0293 17.052 23.952C15.4653 25.8747 13.0853 26.836 9.912 26.836ZM10.444 24.148C12.5533 24.148 14.028 23.4667 14.868 22.104C15.7267 20.7227 16.156 18.7067 16.156 16.056C16.156 13.4053 15.6707 11.52 14.7 10.4C13.748 9.26133 12.4133 8.692 10.696 8.692C8.54933 8.692 7.056 9.42933 6.216 10.904C5.45067 12.2667 5.068 14.2453 5.068 16.84C5.068 19.416 5.544 21.2827 6.496 22.44C7.448 23.5787 8.764 24.148 10.444 24.148Z" fill="white"/>
<path d="M48.228 26.5L46.044 26.752C45.652 26.752 45.3067 26.5187 45.008 26.052L35.796 11.24L36.216 26.5H33.024V6.34L35.208 6.088C35.6187 6.088 35.9733 6.32133 36.272 6.788L45.54 21.572L45.036 6.34H48.228V26.5Z" fill="white"/>
<path d="M67.616 26.5V18.464L60.952 6.536L64.284 6.2L69.212 15.608L74.168 6.2L77.5 6.536L70.808 18.492V26.5H67.616Z" fill="white"/>
<path d="M90.024 26.5V6.34H93.216V26.5H90.024Z" fill="white"/>
<path d="M108.024 26.5V6.34H111.216V26.5H108.024Z" fill="white"/>
<path d="M124.4 25.212L125.38 22.608C127.303 23.6533 128.908 24.176 130.196 24.176C131.484 24.176 132.464 23.924 133.136 23.42C133.808 22.916 134.144 22.2253 134.144 21.348C134.144 20.3773 133.715 19.6027 132.856 19.024C132.371 18.7067 131.96 18.4733 131.624 18.324C131.307 18.1747 130.803 17.96 130.112 17.68C129.44 17.3813 128.917 17.148 128.544 16.98C128.171 16.7933 127.723 16.532 127.2 16.196C126.696 15.8413 126.304 15.4867 126.024 15.132C125.296 14.2547 124.932 13.1907 124.932 11.94C124.932 10.204 125.529 8.79467 126.724 7.712C127.937 6.62933 129.459 6.088 131.288 6.088C132.408 6.088 133.491 6.27467 134.536 6.648C135.581 7.02133 136.384 7.39467 136.944 7.768L135.824 10.204C133.995 9.252 132.567 8.776 131.54 8.776C130.513 8.776 129.692 9.028 129.076 9.532C128.46 10.0173 128.152 10.6613 128.152 11.464C128.152 12.36 128.553 13.0787 129.356 13.62C130.028 14.068 130.803 14.4787 131.68 14.852C132.557 15.2253 133.173 15.496 133.528 15.664C133.901 15.832 134.368 16.1027 134.928 16.476C135.488 16.8493 135.917 17.2227 136.216 17.596C136.963 18.5667 137.336 19.7053 137.336 21.012C137.336 22.8973 136.664 24.344 135.32 25.352C133.995 26.3413 132.249 26.836 130.084 26.836C127.919 26.836 126.024 26.2947 124.4 25.212Z" fill="white"/>
<path d="M151.024 26.5V6.34H154.216V26.5H151.024Z" fill="white"/>
</svg>
